<?xml version="1.0" ?><!-- Uploaded to: SVG Repo, www.svgrepo.com, Generator: SVG Repo Mixer Tools -->
<svg width="800px" height="800px" viewBox="0 0 1000 1000" id="Layer_2" version="1.1" xml:space="preserve" xmlns="http://www.w3.org/2000/svg" xmlns:xlink="http://www.w3.org/1999/xlink"><path d="M841.386,382.016l-15.24,7.087c-2.412,1.122-4.313,3.112-5.322,5.573L798.141,450l-92.089,10.76  c-33.764,3.945-67.979-0.505-99.61-12.957h0c-31.391-12.356-64.066-21.166-97.414-26.264l-49.725-7.602l-6.205-43.129  c-0.621-4.319-3.551-7.804-7.43-9.279v-20.079l268.409,19.297c4.36,0.314,8.13-3.011,8.365-7.376l0.641-11.934  c0.234-4.365-3.157-8.074-7.526-8.229l-269.888-9.598v-8.742c0-4.239-3.436-7.675-7.675-7.675s-7.675,3.436-7.675,7.675v7.9  l-268.409-19.298c-4.36-0.313-8.13,3.011-8.365,7.376l-0.641,11.934c-0.234,4.365,3.157,8.074,7.526,8.229l269.888,9.599v20.623  c-4.322,1.251-7.665,4.929-8.333,9.577l-5.648,39.259c-14.56,0.755-28.952,3.971-42.549,9.573l-1.86,0.766  c-12.334,5.082-25.392,8.081-38.674,9.323c-7.038,0.658-13.596,1.985-19.179,4.184c-27.146,10.694-92.953,78.147-93.776,111.05  c-0.823,32.904,17.275,51.002,17.275,51.002l16.377,15.45c11.499,10.849,25.448,18.511,40.483,22.503l-4.744,37.523  c-8.121-0.666-15.748-4.761-20.745-11.257l-23.623-30.71c-4.209-5.474-12.057-6.497-17.529-2.287  c-5.472,4.21-6.496,12.058-2.287,17.529l23.623,30.71c10.173,13.225,26.209,21.122,42.896,21.122h242.261  c6.904,0,12.5-5.597,12.5-12.5c0-6.903-5.596-12.5-12.5-12.5h-45.883l-5.113-40.444c12.003-4.204,23.251-10.54,33.146-18.834l0,0  c17.111-14.343,29.269-33.711,34.749-55.356c4.853-19.169,20.815-33.499,40.393-36.263l203.475-28.738l10.992-1.553  c4.34-0.613,8.725-0.848,13.106-0.702c9.894,0.33,18.094-7.601,18.094-17.501v-13.381c0-8.882,0.731-17.75,2.185-26.513  l7.622-45.941C847.581,383.132,844.319,380.652,841.386,382.016z M279.16,571.198c-17.584,6.832-36.61-6.23-36.307-25.092  c0.003-0.191,0.007-0.383,0.012-0.577c0.149-5.949,8.602-24.007,31.279-49.373c21.179-23.69,40.938-38.377,48.204-41.24  c2.269-0.893,6.369-2.09,13.002-2.71c16.012-1.498,31.21-5.174,45.174-10.927l1.866-0.769c8.247-3.397,16.788-5.724,25.521-6.97  c-1.604,10.274-15.45,91.35-54.344,101.496c-12.98,3.386-24.02,8.888-33.065,14.853C307.478,558.48,293.608,565.585,279.16,571.198z   M305.147,671.549l4.411-34.889c2.991,0.288,6.005,0.436,9.034,0.436h129.582c6.807,0,13.551-0.676,20.154-1.953l4.603,36.405  H305.147z M481.386,460.535l-5.903,35.142c-1.11,6.608-6.004,11.945-12.492,13.622l-26.936,6.963  c-12.543,3.242-23.948-8.195-20.671-20.729l11.383-43.535c2.06-7.879,9.426-13.185,17.552-12.643l21.456,1.431  C475.797,441.454,483.05,450.63,481.386,460.535z" style="fill:#231F20;"/></svg>